<svg xmlns="http://www.w3.org/2000/svg" viewBox="0 0 120 120" height="30px" width="30px">
  <style type="text/css">
    .soundcloud-icon {fill:#AAAAAA;}
  </style>
  <title>SoundCloud</title>
  <g class="soundcloud-icon">
    <path d="M99.62,57.54a18.09,18.09,0,0,1,6-1.09A14.71,14.71,0,0,1,120,70.81a14.25,14.25,0,0,1-13.3,15c-7.26.45-14.54.11-21.81.16-6.4,0-12.79,0-19.18,0-2.39,0-2.85-.44-2.84-2.78q0-22.32,0-44.65c0-2.27.11-2.41,2.22-3.15C80.8,30,96.91,40,99.5,56.72,99.54,57,99.57,57.19,99.62,57.54Z"/>
    <path d="M61.87,63.09a166.71,166.71,0,0,1-.35,20.63c-.07,1.19-.32,2.23-1.73,2.2s-1.53-1-1.62-2.16c-1.12-14.71-.1-29.44-.16-44.15,0-1,.26-2.07,1.54-2.07s1.8.93,1.83,2.17C61.53,47.12,61.69,54.53,61.87,63.09Z"/>
    <path d="M56.42,63.09c.65,7.08.13,14.14-.2,21.21,0,1-.5,1.61-1.49,1.62s-1.44-.79-1.49-1.77c-.33-6.29-.7-12.57-.55-18.87.18-7.32.24-14.64.35-22l0-1.31c0-1,.56-1.74,1.58-1.73A1.55,1.55,0,0,1,56.23,42c0,2.43.16,4.87.18,7.31C56.44,53.92,56.42,58.5,56.42,63.09Z"/>
    <path d="M45.93,61c.94,7.72.54,15.41,0,23.11-.06.92-.28,1.72-1.33,1.77s-1.34-.85-1.43-1.8a191.19,191.19,0,0,1-.35-25.89c.15-4,.26-8,.37-12,0-.94.13-1.9,1.3-1.92s1.44.91,1.44,1.94C45.92,51.18,45.93,56.11,45.93,61Z"/>
    <path d="M48.08,65.41q0-8.71,0-17.42a9,9,0,0,1,.1-1.46,1.28,1.28,0,0,1,1.42-1.18,1.22,1.22,0,0,1,1.33,1.26c.08,1.16.14,2.33.17,3.51.21,7,.55,13.95.58,20.92,0,4.43-.46,8.87-.7,13.3-.05.89-.36,1.57-1.34,1.58a1.44,1.44,0,0,1-1.49-1.5c-.12-1.5-.12-3-.23-4.53A73,73,0,0,1,48.08,65.41Z"/>
    <path d="M41.37,62.54a125.07,125.07,0,0,1-.46,20.9c0,.3,0,.59-.07.88-.08.82-.24,1.65-1.3,1.57s-1.14-.87-1.21-1.7c-1-10.32-.47-20.65-.17-31q.11-3.81.19-7.6c0-.82.09-1.67,1.15-1.72s1.28.84,1.31,1.72C41,50.68,41.15,55.75,41.37,62.54Z"/>
    <path d="M33,67.14c.25-8,.45-14.34.63-20.63,0-.78.08-1.59,1.06-1.59s1,.83,1.05,1.61c.27,7.71.56,15.41.82,23.12.17,5-.55,10-.82,15,0,.74-.33,1.26-1.13,1.21s-1-.67-1-1.36C33.23,78.17,32.53,71.8,33,67.14Z"/>
    <path d="M31.28,60.52c.16,3.6.46,7.21.45,10.81,0,4.58-.63,9.14-1,13.7,0,.61-.37,1-1,1s-1-.47-1.07-1.14c-.29-5.4-1-10.77-.81-16.2.29-6.67.53-13.35.79-20,0-.1,0-.2,0-.3,0-.76.2-1.4,1.11-1.37s1,.66,1,1.35q.27,6.06.56,12.13Z"/>
    <path d="M26.45,64.54c.82,5.31.08,12.06-.49,18.81a4.53,4.53,0,0,1-.08.73c-.18.69.14,1.81-1,1.77S24,84.74,23.94,84c-1.3-10.27-.44-20.54,0-30.81,0-.71,0-1.51,1-1.49s.84.79.88,1.43C26,56.45,26.18,59.76,26.45,64.54Z"/>                                <path d="M17.25,72.3c-.43,4.08-.87,8.2-1.32,12.32,0,.48-.16,1-.84,1s-.71-.5-.73-1c-.22-5.5-1.18-11-.56-16.49.32-2.86.49-5.73.73-8.59,0-.49,0-1.08.69-1.09s.79.45.84,1C16.46,63.71,16.85,68,17.25,72.3Z"/>
    <path d="M18.3,72.38c.34-4,.67-7.95,1-11.89.05-.51.16-1,.81-1s.72.58.76,1.06c.51,5.91,1.63,11.8.64,17.78-.34,2-.39,4.08-.61,6.12-.06.55,0,1.33-.83,1.32s-.74-.76-.79-1.33C19,80.38,18.62,76.35,18.3,72.38Z"/>
    <path d="M8.89,71.65c.36-4.26.66-7.86,1-11.46,0-.46-.07-1.1.63-1.1s.59.65.64,1.1c.37,3.84,1,7.67,1,11.51.09,4.24-.68,8.45-1.08,12.67,0,.42-.15.82-.67.78s-.52-.38-.55-.75C9.55,79.93,9,75.48,8.89,71.65Z"/>
    <path d="M4.21,72.32C4.57,69,5,65.43,5.35,61.9c0-.32.07-.75.54-.72s.44.46.48.79c.4,3.28,1,6.56,1.14,9.86.13,3.6-.82,7.14-1.18,10.72,0,.3-.14.63-.5.59-.55,0-.46-.57-.5-.91C4.94,79,4.59,75.75,4.21,72.32Z"/>
    <path d="M0,72.33Q.42,69.14.85,66c0-.3.16-.6.51-.6s.41.36.48.62a25.11,25.11,0,0,1,0,12.42c-.08.32-.11.75-.58.7s-.4-.38-.44-.68Z"/>
  </g>
</svg>
