<svg xmlns="http://www.w3.org/2000/svg" viewBox="0 0 120 120" height="40px" width="40px">
  <style>
    .phone-border{fill:#AAAAAA;}
    .phone-screen{fill:#1C1C1C;}
  </style>
  <title>Cellphone</title>
  <path class="phone-border" d="M89.93,60.11V109.9c0,6.19-3.79,10.06-9.94,10.08q-20,0-39.93,0c-6.3,0-10-3.79-10-10.11q0-50.1,0-100.2A9.2,9.2,0,0,1,39.48.07C44.72,0,50,.05,55.2.05c8.12,0,16.24.15,24.36,0C86.05-.15,90.07,4.68,90,10.48,89.79,27,89.93,43.57,89.93,60.11Z"/>
  <path class="phone-screen" d="M86.19,60.18q0-25.27,0-50.55c0-.36,0-.72,0-1.08a5,5,0,0,0-4.83-4.69c-1.8-.06-3.6-.07-5.39,0a1.64,1.64,0,0,0-1.14,1c-.48,2.1-1.37,3-3.44,3q-11.41,0-22.81,0c-2,0-3.13-.91-3.35-2.86-.11-1-.55-1.18-1.39-1.16-1.33,0-2.67,0-4,0-4.25,0-6.06,1.81-6.06,6.11V110.29c0,4,1.88,5.9,6,5.9H80.08c4.28,0,6.1-1.81,6.1-6.07Q86.18,85.15,86.19,60.18Z"/>
</svg>
