<svg xmlns="http://www.w3.org/2000/svg" viewBox="0 0 120 120"><title>Mesa de trabajo 5</title><g id="Capa_5" data-name="Capa 5"><path d="M49.36,80.66c-3.34-.62-6.42-1.07-9.44-1.8C33.06,77.21,26.81,74.35,22,69c-5.11-5.61-7.55-12.41-8.19-19.81a66.22,66.22,0,0,1,.09-13,26.2,26.2,0,0,1,6.8-14.35A1.73,1.73,0,0,0,21.09,20c-2.09-6.34-1.47-12.6.73-18.8a1.55,1.55,0,0,1,2-1c2.58.46,5.3.68,7.67,1.68,3.94,1.66,7.64,3.88,11.47,5.79A3.64,3.64,0,0,0,45.21,8a76.24,76.24,0,0,1,37,0,3.62,3.62,0,0,0,3.11-.58C90,4.31,94.86,1.56,100.43.55c6-1.08,5.07-.95,6.44,4a26.76,26.76,0,0,1-.21,15.6,1.88,1.88,0,0,0,.32,1.52c6,6.94,8.08,15.07,7.4,24.09C114,51.37,113,56.88,110.55,62c-4.22,8.76-11.49,13.72-20.61,16.21-3.7,1-7.52,1.62-11.35,2.42a1.61,1.61,0,0,0,.25.44A16.76,16.76,0,0,1,83.4,92.54c.18,7.67.08,15.34,0,23,0,1.88.29,3.5,2.27,4.45H41.1c3.43-.76,3.22-3.17,3.19-5.55,0-3.7,0-7.41,0-11.2-2.34.25-4.45.56-6.57.68a22.23,22.23,0,0,1-13.48-3.08,16.7,16.7,0,0,1-6.75-8.06c-2-5-4.82-9.25-9.53-12.08a8.06,8.06,0,0,1-1.86-1.64c-1-1.09-.76-2,.65-2.2a14.73,14.73,0,0,1,5.3.24c4.18,1.11,7.09,4,9.31,7.58s5.25,6.56,9.54,7.76a19.44,19.44,0,0,0,12.88-1.17,1.63,1.63,0,0,0,.82-1A17.39,17.39,0,0,1,49.36,80.66Z"/></g></svg>