<svg xmlns="http://www.w3.org/2000/svg" viewBox="0 0 120 120" height="25px" width="25px" style="margin-bottom: 7px">
  <style type="text/css">
    .linkedin-icon {fill:#0E76A8;}
  </style>
  <title>LinkedIn</title>
  <a href="https://www.linkedin.com/in/diegoflopezr/" target="_blank">
    <g class="linkedin-icon">
      <path d="M67.2,117.33H41.6V40.07H67.2V50.2c1.47-1.27,3.13-2.69,4.78-4.14,4.49-3.94,9.47-7,15.54-7.65,12.42-1.31,25.37,4,30.28,19.37A49.54,49.54,0,0,1,120,72.92q0,21.61,0,43.24c0,.36,0,.72-.07,1.15H94.28V115.8c0-13.07,0-26.15,0-39.23a35.76,35.76,0,0,0-1-8.64c-2.4-9.38-13.29-12.67-20.68-6.34a14.11,14.11,0,0,0-5.3,11.12c0,6.42,0,12.83,0,19.24q0,11.94,0,23.87Z"/>
      <path d="M1.62,40H27.19v77.23H1.62Z"/>
      <path d="M28.92,16.11A13.05,13.05,0,0,1,17.38,29.19c-4.64.65-9,.09-12.71-3C.46,22.65-.77,18,.44,12.77s4.77-8.24,9.84-9.55a17.08,17.08,0,0,1,8.89.08A13,13,0,0,1,28.92,16.11Z"/>
    </g>
  </a>
</svg>
