<svg xmlns="http://www.w3.org/2000/svg" viewBox="0 0 120 120"><title>Mesa de trabajo 2</title><g id="Mail"><g id="Mail-2" data-name="Mail"><path d="M0,95.39V40.31a4.83,4.83,0,0,1,.52.23l45.2,30.14a62.87,62.87,0,0,0,5.61,3.61c6.66,3.51,13.14,2.94,19.36-1.2L118.91,41c.31-.21.63-.4,1.09-.7v1q0,26.25,0,52.49a11.67,11.67,0,0,1-.35,2.89c-1.3,5.15-5.65,8.36-11.29,8.37H11.56a11.5,11.5,0,0,1-8.12-3.06A12.41,12.41,0,0,1,0,95.39Z"/><path d="M0,24.61c.27-.89.49-1.8.83-2.66a11.07,11.07,0,0,1,10.61-6.9q14.36,0,28.71,0,34.1,0,68.2,0c6.15,0,10.69,3.72,11.52,9.63.62,4.49-1.23,8-5,10.48l-22.4,15L67.06,67.05C62,70.4,58,70.4,53,67.06,37.56,56.8,22.19,46.49,6.75,36.31,3.45,34.13.81,31.67,0,27.66Z"/></g></g></svg>