<svg xmlns="http://www.w3.org/2000/svg" viewBox="0 0 120 120" height="25px" width="25px">
  <style type="text/css">
    .twitter-icon {fill:#00ACEE;}
  </style>
  <title>Twitter</title>
  <path class="twitter-icon" d="M0,97.89A50.37,50.37,0,0,0,36.1,87.74c-11.29-1-18.79-6.7-23-17.22A28.28,28.28,0,0,0,24,70.07C9.21,66.29,4,53.13,4.68,45.61a24.82,24.82,0,0,0,10.89,2.9C9.39,44,5.84,38.25,4.92,31A24.07,24.07,0,0,1,8.1,15.66C21.44,31.37,38.29,40,58.74,41.42c-.08-2.49-.3-4.82-.23-7.16C58.8,24.19,66.57,14.52,76.34,12c9.15-2.34,17.2-.27,24.07,6.22a1.57,1.57,0,0,0,1.67.41,49.54,49.54,0,0,0,13.55-5.14c.27-.15.56-.27,1-.5a19.16,19.16,0,0,1-4,7.51c-1.84,2.09-4,3.94-5.9,5.85a49.63,49.63,0,0,0,13-3.56l.26.29c-2,2.32-3.86,4.74-6,6.94-1.7,1.76-3.72,3.23-5.54,4.89a2.21,2.21,0,0,0-.67,1.46c0,25.43-10,45.86-30.73,60.75-8.76,6.31-18.78,9.71-29.49,11.1a72.53,72.53,0,0,1-29.78-2.16A67.89,67.89,0,0,1,.52,98.32,6.22,6.22,0,0,1,0,97.89Z"/>
</svg>
