<svg xmlns="http://www.w3.org/2000/svg" viewBox="0 0 120 120" height="25px" width="25px">
  <style type="text/css">
    .whatsapp-icon {fill:#25D366;}
  </style>
  <title>WhatsApp</title>
  <g class="whatsapp-icon">
    <path d="M1.85,118.14c1-3.53,1.88-6.83,2.8-10.12C6,103.13,7.46,98.26,8.73,93.35a4.09,4.09,0,0,0-.4-2.81C-13.3,53.61,9.31,6.72,51.75.61,85-4.19,116.14,20,119.66,53.45a59.89,59.89,0,0,1-51.52,66,58.9,58.9,0,0,1-38.41-7.69,3.9,3.9,0,0,0-3.38-.4c-7.49,2.15-15,4.23-22.52,6.33C3.27,117.83,2.7,117.94,1.85,118.14ZM13,107c5.21-1.46,10-2.76,14.83-4.17a3.37,3.37,0,0,1,3.17.51,50.6,50.6,0,0,0,27.79,8.82,52.16,52.16,0,0,0,53.26-56.67c-2.6-31.85-33.63-54-64.69-46.12A52.17,52.17,0,0,0,16.63,89a3.56,3.56,0,0,1,.54,3.33C15.76,97.06,14.46,101.84,13,107Z"/>
    <path d="M78.68,89.37a26.24,26.24,0,0,1-11.66-3,72.09,72.09,0,0,1-33.66-34,23.72,23.72,0,0,1-2.65-10.63c0-4.92,3-8,6.82-10.41a6.69,6.69,0,0,1,7.88,1.32,48.47,48.47,0,0,1,5.36,7.68c1.3,2.3.73,4.2-1.13,6.06-.55.56-1.12,1.11-1.67,1.66-2.21,2.22-2.42,3.29-.91,6.08a19.14,19.14,0,0,0,2.81,4.2c3.93,4.09,7.94,8.11,12.06,12a19.69,19.69,0,0,0,4.71,3c2.16,1.1,3.3.81,5-.88.52-.51,1-1,1.55-1.53,2.53-2.58,4.22-3,7.4-1.21A35.53,35.53,0,0,1,87,74.14a7.16,7.16,0,0,1,.34,10.51C84.78,87.33,82,89.67,78.68,89.37Z"/>
  </g>
</svg>
