<svg xmlns="http://www.w3.org/2000/svg" viewBox="0 0 120 120" height="25px" width="25px">
  <style type="text/css">
    .youtube-icon {fill:#FF0000;}
  </style>
  <title>Youtube</title>
  <a href="https://www.youtube.com/dfelo93" target="_blank">
    <path class="youtube-icon" d="M59.7,18.05c12.34,0,24.67.15,37,1.06a78.76,78.76,0,0,1,8.68,1c6.94,1.31,11.41,6,12.72,13.32,1.81,10.05,2,20.21,1.87,30.39a161.5,161.5,0,0,1-1.6,21.29c-.78,5.16-2.67,9.6-7.24,12.55-2.79,1.8-6,2.32-9.14,2.66-12.37,1.3-24.79,1.46-37.21,1.58-12.58.13-25.16-.13-37.73-.85a113.08,113.08,0,0,1-12-1.24C8.14,98.73,3.46,94.11,2,87.05A127.82,127.82,0,0,1,.09,65.67a185.81,185.81,0,0,1,1.2-28.2,45.94,45.94,0,0,1,1.15-6.26C4.12,24.94,9.21,20.7,16,19.85c11.73-1.47,23.52-1.6,35.31-1.8C54.12,18,56.91,18.05,59.7,18.05ZM48.14,77.91,79.29,60,48.14,42Z"/>
  </a>
</svg>
