<svg xmlns="http://www.w3.org/2000/svg" viewBox="0 0 40 40"><defs><style>.cls-1{fill:#fff;}.cls-2{fill:#1c1c1c;}</style></defs><title>cellphone-40px</title><g id="Cellphone_40px" data-name="Cellphone 40px"><path class="cls-1" d="M30,20V36.63A3.1,3.1,0,0,1,26.66,40H13.35A3.09,3.09,0,0,1,10,36.62V3.22A3.07,3.07,0,0,1,13.16,0c1.75,0,3.49,0,5.24,0,2.71,0,5.41.05,8.12,0A3.3,3.3,0,0,1,30,3.49C29.93,9,30,14.52,30,20Z"/><path class="cls-2" d="M28.74,20.06V3.21c0-.12,0-.24,0-.36a1.65,1.65,0,0,0-1.61-1.56,17.8,17.8,0,0,0-1.79,0,.51.51,0,0,0-.38.33c-.16.69-.46,1-1.15,1H16.19a1,1,0,0,1-1.11-1c0-.33-.18-.4-.46-.39-.45,0-.89,0-1.34,0-1.42,0-2,.61-2,2V36.76c0,1.35.63,2,2,2H26.71c1.42,0,2-.6,2-2Z"/></g></svg>